<svg width="256" height="256" viewBox="0 0 256 256" fill="none" xmlns="http://www.w3.org/2000/svg">
<path d="M196 0H60C26.8629 0 0 26.8629 0 60V196C0 229.137 26.8629 256 60 256H196C229.137 256 256 229.137 256 196V60C256 26.8629 229.137 0 196 0Z" fill="#31A8FF"/>
<path d="M58.4548 130.544V122.288C64.6563 122.288 68.9863 121.022 71.4449 118.49C73.9035 115.921 75.1327 111.683 75.1327 105.775V89.9776C75.1327 84.3633 75.7566 79.648 77.0042 75.8317C78.2885 71.9787 80.2334 68.8963 82.8387 66.5845C85.4441 64.2727 88.7466 62.6031 92.7464 61.5756C96.7461 60.5482 101.461 60.0344 106.892 60.0344V73.0795C102.636 73.0795 99.3148 73.7034 96.9296 74.951C94.5444 76.1986 92.8748 78.1435 91.9207 80.7855C91.0034 83.3909 90.5447 86.7301 90.5447 90.8033V110.839C90.5447 113.664 90.1227 116.288 89.2787 118.71C88.4347 121.095 86.8752 123.168 84.6001 124.93C82.325 126.691 79.0775 128.067 74.8575 129.058C70.6376 130.049 65.17 130.544 58.4548 130.544ZM106.892 200.448C101.461 200.448 96.7461 199.934 92.7464 198.907C88.7466 197.879 85.4441 196.21 82.8387 193.898C80.2334 191.586 78.2885 188.504 77.0042 184.651C75.7566 180.835 75.1327 176.119 75.1327 170.505V154.653C75.1327 148.781 73.9035 144.562 71.4449 141.993C68.9863 139.424 64.6563 138.14 58.4548 138.14V129.939C65.17 129.939 70.6376 130.434 74.8575 131.425C79.0775 132.379 82.325 133.755 84.6001 135.553C86.8752 137.314 88.4347 139.406 89.2787 141.828C90.1227 144.213 90.5447 146.818 90.5447 149.644V169.679C90.5447 173.716 91.0034 177.037 91.9207 179.642C92.8748 182.284 94.5444 184.229 96.9296 185.477C99.3148 186.761 102.636 187.403 106.892 187.403V200.448ZM58.4548 138.14V122.288H73.7016V138.14H58.4548ZM196.531 129.939V138.14C190.33 138.14 186 139.424 183.541 141.993C181.083 144.562 179.854 148.781 179.854 154.653V170.505C179.854 176.119 179.211 180.835 177.927 184.651C176.679 188.504 174.753 191.586 172.148 193.898C169.542 196.21 166.24 197.879 162.24 198.907C158.24 199.934 153.525 200.448 148.094 200.448V187.403C152.351 187.403 155.671 186.761 158.057 185.477C160.442 184.229 162.093 182.284 163.01 179.642C163.965 177.037 164.442 173.716 164.442 169.679V149.644C164.442 146.818 164.864 144.213 165.708 141.828C166.552 139.406 168.111 137.314 170.386 135.553C172.661 133.755 175.909 132.379 180.129 131.425C184.349 130.434 189.816 129.939 196.531 129.939ZM148.094 60.0344C153.525 60.0344 158.24 60.5482 162.24 61.5756C166.24 62.6031 169.542 64.2727 172.148 66.5845C174.753 68.8963 176.679 71.9787 177.927 75.8317C179.211 79.648 179.854 84.3633 179.854 89.9776V105.775C179.854 111.683 181.083 115.921 183.541 118.49C186 121.022 190.33 122.288 196.531 122.288V130.544C189.816 130.544 184.349 130.049 180.129 129.058C175.909 128.067 172.661 126.691 170.386 124.93C168.111 123.168 166.552 121.095 165.708 118.71C164.864 116.288 164.442 113.664 164.442 110.839V90.8033C164.442 86.7301 163.965 83.3909 163.01 80.7855C162.093 78.1435 160.442 76.1986 158.057 74.951C155.671 73.7034 152.351 73.0795 148.094 73.0795V60.0344ZM196.531 122.288V138.14H181.285V122.288H196.531Z" fill="white"/>
</svg>
