<?xml version="1.0" encoding="UTF-8"?>
<svg id="Layer_1" xmlns="http://www.w3.org/2000/svg" xmlns:xlink="http://www.w3.org/1999/xlink" version="1.1" viewBox="0 0 256 256">
  <!-- Generator: Adobe Illustrator 30.2.1, SVG Export Plug-In . SVG Version: 2.1.1 Build 1)  -->
  <defs>
    <style>
      .st0 {
        fill: none;
      }

      .st1 {
        mask: url(#mask);
      }

      .st2 {
        fill: #0acf83;
      }

      .st3 {
        fill: #ff7262;
      }

      .st4 {
        fill: #fff;
      }

      .st5 {
        fill: #1abcfe;
      }

      .st6 {
        fill: #242938;
      }

      .st7 {
        fill: #f24e1e;
      }

      .st8 {
        fill: #a259ff;
      }
    </style>
    <mask id="mask" x="73.7" y="47" width="108" height="162" maskUnits="userSpaceOnUse">
      <g id="mask0_16_28">
        <path class="st4" d="M181.7,47h-108v162h108V47Z"/>
      </g>
    </mask>
  </defs>
  <rect class="st0" width="256" height="256"/>
  <g>
    <path class="st6" d="M196,0H60C26.9,0,0,26.9,0,60v136c0,33.1,26.9,60,60,60h136c33.1,0,60-26.9,60-60V60c0-33.1-26.9-60-60-60Z"/>
    <g class="st1">
      <g>
        <path class="st2" d="M100.7,209c14.9,0,27-12.1,27-27v-27h-27c-14.9,0-27,12.1-27,27s12.1,27,27,27Z"/>
        <path class="st8" d="M73.7,128c0-14.9,12.1-27,27-27h27v54h-27c-14.9,0-27-12.1-27-27Z"/>
        <path class="st7" d="M73.7,74c0-14.9,12.1-27,27-27h27v54h-27c-14.9,0-27-12.1-27-27Z"/>
        <path class="st3" d="M127.7,47h27c14.9,0,27,12.1,27,27s-12.1,27-27,27h-27v-54Z"/>
        <path class="st5" d="M181.7,128c0,14.9-12.1,27-27,27s-27-12.1-27-27,12.1-27,27-27,27,12.1,27,27Z"/>
      </g>
    </g>
  </g>
</svg>