<svg width="112" height="112" viewBox="0 0 112 112" fill="none" xmlns="http://www.w3.org/2000/svg">
<path d="M55.9999 9.3335C49.8716 9.3335 43.8032 10.5406 38.1414 12.8858C32.4795 15.231 27.335 18.6684 23.0016 23.0018C14.2499 31.7535 9.33325 43.6234 9.33325 56.0002C9.33325 76.6268 22.7266 94.1268 41.2533 100.333C43.5866 100.707 44.3333 99.2602 44.3333 98.0002V90.1135C31.4066 92.9135 28.6533 83.8602 28.6533 83.8602C26.5066 78.4468 23.4733 77.0002 23.4733 77.0002C19.2266 74.1068 23.7999 74.2002 23.7999 74.2002C28.4666 74.5268 30.9399 79.0068 30.9399 79.0068C34.9999 86.1002 41.8599 84.0002 44.5199 82.8802C44.9399 79.8468 46.1533 77.7935 47.4599 76.6268C37.0999 75.4602 26.2266 71.4468 26.2266 53.6668C26.2266 48.4868 27.9999 44.3335 31.0333 41.0202C30.5666 39.8535 28.9333 35.0002 31.4999 28.7002C31.4999 28.7002 35.4199 27.4402 44.3333 33.4602C48.0199 32.4335 52.0333 31.9202 55.9999 31.9202C59.9666 31.9202 63.9799 32.4335 67.6666 33.4602C76.5799 27.4402 80.4999 28.7002 80.4999 28.7002C83.0666 35.0002 81.4333 39.8535 80.9666 41.0202C83.9999 44.3335 85.7733 48.4868 85.7733 53.6668C85.7733 71.4935 74.8533 75.4135 64.4466 76.5802C66.1266 78.0268 67.6666 80.8735 67.6666 85.2135V98.0002C67.6666 99.2602 68.4133 100.753 70.7933 100.333C89.3199 94.0802 102.667 76.6268 102.667 56.0002C102.667 49.8718 101.46 43.8035 99.1143 38.1416C96.7691 32.4797 93.3316 27.3352 88.9982 23.0018C84.6648 18.6684 79.5203 15.231 73.8585 12.8858C68.1966 10.5406 62.1283 9.3335 55.9999 9.3335Z" fill="black"/>
</svg>
