<svg width="256" height="256" viewBox="0 0 256 256" fill="none" xmlns="http://www.w3.org/2000/svg">
<g clip-path="url(#clip0_16_39)">
<path d="M196 0H60C26.8629 0 0 26.8629 0 60V196C0 229.137 26.8629 256 60 256H196C229.137 256 256 229.137 256 196V60C256 26.8629 229.137 0 196 0Z" fill="#FF9A00"/>
<path d="M102.837 167.621L43 136.481V122.857L102.837 91.5908V109.218L60.9908 129.878L102.837 149.983V167.621ZM148.222 74.875L122.831 186.438H108.014L133.405 74.875H148.222ZM195.015 129.878L153.163 109.22V91.5934L213 122.857V136.481L153.163 167.621V149.983L195.015 129.878Z" fill="white"/>
</g>
<defs>
<clipPath id="clip0_16_39">
<rect width="256" height="256" fill="white"/>
</clipPath>
</defs>
</svg>
