<svg width="256" height="250" viewBox="0 0 256 250" fill="none" xmlns="http://www.w3.org/2000/svg">
<g clip-path="url(#clip0_16_24)">
<path d="M213.5 0H42.5C19.0279 0 0 19.0279 0 42.5V207.1C0 230.572 19.0279 249.6 42.5 249.6H213.5C236.972 249.6 256 230.572 256 207.1V42.5C256 19.0279 236.972 0 213.5 0Z" fill="#49021F"/>
<path d="M92.9688 65.2974V174.691C92.9688 175.837 92.4537 176.409 91.4235 176.409H70.6432C69.726 176.409 69.2682 175.836 69.2698 174.691V65.2974C69.2698 64.3823 69.7849 63.9244 70.8151 63.9235H91.5948C91.9732 63.8697 92.3548 63.9971 92.625 64.2673C92.8614 64.5037 92.9885 64.8255 92.9805 65.1556L92.9688 65.2974ZM155.555 178.115L154.45 178.126C146.545 178.247 138.713 176.604 131.523 173.318C124.825 170.218 119.226 165.158 115.466 158.806C111.667 152.497 109.722 144.633 109.63 135.215L109.627 134.506C109.562 126.624 111.576 118.864 115.466 112.009C119.367 105.21 125.056 99.6139 131.91 95.8256L132.468 95.5224C139.908 91.4008 148.896 89.3401 159.43 89.3402L159.652 89.3415L160.145 89.3522L160.703 89.3737L161.326 89.4059L162.013 89.4494L162.764 89.5037L164.461 89.6426C164.613 89.6559 164.768 89.6695 164.925 89.6836V55.8522C164.925 55.0524 165.269 54.65 165.956 54.65H187.594C187.878 54.6095 188.164 54.7049 188.367 54.9075C188.569 55.1102 188.665 55.3964 188.625 55.6803V157.175C188.625 159.123 188.71 161.241 188.882 163.529L189.044 165.743L189.187 167.804L189.312 169.711C189.355 170.441 188.945 171.123 188.281 171.429C182.698 173.757 176.884 175.484 170.936 176.58C165.86 177.517 160.715 178.031 155.555 178.115ZM164.925 156.831V109.948C163.997 109.697 163.049 109.524 162.092 109.433C160.922 109.315 159.747 109.258 158.571 109.261C154.404 109.22 150.285 110.161 146.55 112.009C142.911 113.817 139.805 116.539 137.534 119.909C135.186 123.343 134.012 127.866 134.013 133.476C133.929 137.219 134.541 140.946 135.816 144.466C136.854 147.303 138.495 149.881 140.625 152.023C142.664 153.993 145.133 155.463 147.838 156.316C150.694 157.241 153.679 157.705 156.682 157.691C158.284 157.691 159.772 157.633 161.147 157.518C162.244 157.436 163.331 157.255 164.395 156.978L164.925 156.831Z" fill="#FF3366"/>
</g>
<defs>
<clipPath id="clip0_16_24">
<rect width="256" height="250" fill="white"/>
</clipPath>
</defs>
</svg>
