<?xml version="1.0" encoding="UTF-8"?>
<svg id="Layer_1" xmlns="http://www.w3.org/2000/svg" xmlns:xlink="http://www.w3.org/1999/xlink" version="1.1" viewBox="0 0 256 256">
  <!-- Generator: Adobe Illustrator 30.2.1, SVG Export Plug-In . SVG Version: 2.1.1 Build 1)  -->
  <defs>
    <style>
      .st0 {
        fill: none;
      }

      .st1 {
        fill: #323330;
      }

      .st2 {
        fill: #fe0;
      }

      .st3 {
        clip-path: url(#clippath);
      }
    </style>
    <clipPath id="clippath">
      <rect class="st0" width="256" height="256"/>
    </clipPath>
  </defs>
  <g class="st3">
    <g>
      <path class="st2" d="M196,0H60C26.9,0,0,26.9,0,60v136c0,33.1,26.9,60,60,60h136c33.1,0,60-26.9,60-60V60c0-33.1-26.9-60-60-60Z"/>
      <path class="st1" d="M47.3,193.9l19.6-11.9c3.8,6.7,7.2,12.4,15.5,12.4s12.9-3.1,12.9-15.1v-81.8h24.1v82.1c0,24.9-14.6,36.3-35.9,36.3s-30.4-10-36.1-22"/>
      <path class="st1" d="M132.4,191.3l19.6-11.3c5.2,8.4,11.9,14.6,23.7,14.6s16.3-5,16.3-11.9-6.5-11.2-17.5-16l-6-2.6c-17.4-7.4-28.9-16.7-28.9-36.3s13.7-31.8,35.2-31.8,26.3,5.3,34.2,19.2l-18.7,12c-4.1-7.4-8.6-10.3-15.5-10.3s-11.5,4.5-11.5,10.3,4.5,10.1,14.8,14.6l6,2.6c20.4,8.8,32,17.7,32,37.8s-17,33.5-39.9,33.5-36.8-10.7-43.8-24.6Z"/>
    </g>
  </g>
</svg>