<?xml version="1.0" encoding="UTF-8"?>
<svg id="Layer_2" data-name="Layer 2" xmlns="http://www.w3.org/2000/svg" viewBox="0 0 62.42 8.95">
  <g id="Layer_1-2" data-name="Layer 1">
    <g>
      <path d="M0,8.85V.12h10.9v1.91h-6.69v1.5h6.02v1.91h-6.02v3.41H0Z"/>
      <path d="M15.28,8.85h-4.54L15.85.12h5.75l5.12,8.73h-4.54l-3.39-6.32h-.12l-3.39,6.32ZM14.43,5.4h8.54v1.77h-8.54v-1.77Z"/>
      <path d="M28.2,8.85V.12h6.69c1.15,0,2.16.12,3.02.35.86.24,1.53.58,2.01,1.02.48.44.72.97.72,1.59s-.25,1.15-.74,1.58c-.49.43-1.18.75-2.07.97-.88.22-1.92.33-3.1.33h-4v-1.84h3.15c.5,0,.92-.03,1.27-.1.35-.07.62-.18.81-.33s.28-.35.28-.6-.1-.45-.28-.61-.46-.27-.81-.35c-.35-.08-.77-.11-1.27-.11h-1.48v6.84h-4.21ZM37.28,4.84l3.88,4.01h-4.57l-3.78-4.01h4.48Z"/>
      <path d="M47.83.12v8.73h-4.21V.12h4.21Z"/>
      <path d="M58.18,2.85c-.04-.28-.23-.51-.56-.66-.33-.16-.84-.24-1.52-.24-.43,0-.79.03-1.06.09s-.48.14-.61.24c-.13.1-.2.21-.2.34-.01.11.02.2.1.28.08.08.2.16.37.23.17.07.39.13.66.18.27.05.59.1.95.15l1.27.15c.86.1,1.59.24,2.2.4s1.11.36,1.5.59c.39.23.67.48.86.76.19.28.28.59.28.92,0,.57-.26,1.06-.76,1.46-.5.4-1.22.7-2.16.91-.94.21-2.06.31-3.37.31s-2.52-.11-3.52-.34c-1-.22-1.78-.57-2.33-1.04-.55-.47-.83-1.07-.84-1.8h4c.03.27.14.49.36.67.21.18.51.32.9.41.39.09.85.14,1.38.14.45,0,.82-.03,1.13-.09.3-.06.53-.15.69-.26.16-.11.24-.24.24-.38,0-.13-.08-.25-.23-.35-.15-.1-.39-.19-.73-.27s-.79-.16-1.37-.23l-1.55-.19c-1.37-.17-2.45-.45-3.24-.84-.79-.39-1.18-.93-1.18-1.61,0-.55.26-1.04.79-1.46s1.27-.74,2.22-.97c.95-.23,2.03-.35,3.26-.35s2.33.12,3.25.35c.91.24,1.62.57,2.12.99.5.43.75.93.75,1.5h-4.03Z"/>
    </g>
  </g>
</svg>