<?xml version="1.0" encoding="UTF-8"?>
<svg id="Layer_1" xmlns="http://www.w3.org/2000/svg" xmlns:xlink="http://www.w3.org/1999/xlink" version="1.1" viewBox="0 0 266 266">
  <!-- Generator: Adobe Illustrator 30.2.1, SVG Export Plug-In . SVG Version: 2.1.1 Build 1)  -->
  <defs>
    <style>
      .st0 {
        fill: none;
      }

      .st1 {
        clip-path: url(#clippath-1);
      }

      .st2 {
        fill: url(#linear-gradient2);
        stroke: url(#linear-gradient3);
      }

      .st2, .st3 {
        stroke-width: 1.4px;
      }

      .st3 {
        fill: url(#linear-gradient);
        stroke: url(#linear-gradient1);
      }

      .st4 {
        clip-path: url(#clippath);
      }
    </style>
    <clipPath id="clippath">
      <rect class="st0" width="266" height="266"/>
    </clipPath>
    <clipPath id="clippath-1">
      <rect class="st0" x="8" y="79" width="261.1" height="107"/>
    </clipPath>
    <linearGradient id="linear-gradient" x1="61.7" y1="189" x2="61.7" y2="82" gradientTransform="translate(0 268) scale(1 -1)" gradientUnits="userSpaceOnUse">
      <stop offset="0" stop-color="#fff"/>
      <stop offset=".5" stop-color="#dfdfdf"/>
      <stop offset="1" stop-color="#5d5d5d"/>
    </linearGradient>
    <linearGradient id="linear-gradient1" x1="61.7" y1="189" x2="61.7" y2="82" gradientTransform="translate(0 268) scale(1 -1)" gradientUnits="userSpaceOnUse">
      <stop offset="0" stop-color="#fff"/>
      <stop offset=".5" stop-color="#fbfbfb"/>
      <stop offset="1" stop-color="#696969"/>
    </linearGradient>
    <linearGradient id="linear-gradient2" x1="197.5" y1="189" x2="197.5" y2="82" gradientTransform="translate(0 268) scale(1 -1)" gradientUnits="userSpaceOnUse">
      <stop offset="0" stop-color="#fff"/>
      <stop offset=".5" stop-color="#dbdbdb"/>
      <stop offset="1" stop-color="#5d5d5d"/>
    </linearGradient>
    <linearGradient id="linear-gradient3" x1="197.5" y1="189" x2="197.5" y2="82" gradientTransform="translate(0 268) scale(1 -1)" gradientUnits="userSpaceOnUse">
      <stop offset="0" stop-color="#fff"/>
      <stop offset=".5" stop-color="#e5e5e5"/>
      <stop offset="1" stop-color="#636363"/>
    </linearGradient>
  </defs>
  <g class="st4">
    <g class="st1">
      <g>
        <path class="st3" d="M12.2,79.7h98.9c2,0,3.6,1.6,3.6,3.6v15.1c0,2-1.6,3.6-3.6,3.6h-57.6c-2.8,0-5,2.2-5,5v9.5c0,2.8,2.2,5,5,5h50.5c2,0,3.6,1.6,3.6,3.6v15.1c0,2-1.6,3.6-3.6,3.6h-50.5c-2.8,0-5,2.2-5,5v33.1c0,2-1.6,3.6-3.6,3.6H9.3c-.4,0-.7-.3-.7-.7v-101.3c0-2,1.6-3.6,3.6-3.6Z"/>
        <path class="st2" d="M132.5,79.7h35.6c1.2,0,2.1,1,2.1,2.1v38.5c0,1.3,1.1,2.4,2.4,2.4s1.2-.2,1.6-.6l44.8-41.9c.3-.3.8-.5,1.3-.6h.2s39.9,0,39.9,0c2,0,2.9,2.4,1.4,3.7l-44.4,40.4c-1.5,1.3-1.6,3.6-.2,5l46.9,51.5c1.3,1.4.3,3.6-1.6,3.6h-41.9c-.6,0-1.2-.3-1.6-.7l-31.5-35.8c-1.3-1.5-3.6-1.6-5-.3l-11.1,9.8c-.8.7-1.2,1.7-1.2,2.7v23.7c0,1.2-1,2.1-2.1,2.1h-37.1c-.4,0-.7-.3-.7-.7v-102.8c0-1.2,1-2.1,2.1-2.1Z"/>
      </g>
    </g>
  </g>
</svg>