<svg width="266" height="266" viewBox="0 0 266 266" fill="none" xmlns="http://www.w3.org/2000/svg">
<g clip-path="url(#clip0_1_3)">
<rect x="1" y="1" width="264" height="264" rx="65" fill="url(#paint0_linear_1_3)" stroke="url(#paint1_linear_1_3)" stroke-width="2"/>
<g clip-path="url(#clip1_1_3)">
<path d="M50 95.5H119.353C120.733 95.5 121.853 96.6193 121.853 98V108.559C121.852 109.939 120.733 111.059 119.353 111.059H78.9814C77.0487 111.059 75.4814 112.626 75.4814 114.559V121.221C75.4814 123.154 77.0487 124.72 78.9814 124.721H114.385C115.765 124.721 116.885 125.84 116.885 127.221V137.779C116.885 139.16 115.765 140.279 114.385 140.279H78.9814C77.0487 140.28 75.4814 141.846 75.4814 143.779V167C75.4814 168.381 74.3622 169.5 72.9814 169.5H47.9736C47.7121 169.5 47.5002 169.288 47.5 169.026V98C47.5 96.6193 48.6193 95.5 50 95.5Z" fill="url(#paint2_linear_1_3)" stroke="url(#paint3_linear_1_3)"/>
<path d="M134.29 95.5H159.271C160.099 95.5 160.771 96.1716 160.771 97V124.008C160.771 124.939 161.527 125.694 162.459 125.694C162.886 125.694 163.299 125.532 163.612 125.24L194.987 95.9043C195.23 95.677 195.541 95.538 195.87 95.5068L196.011 95.5H223.999C225.369 95.5004 226.022 97.1882 225.007 98.1104L193.882 126.4C192.86 127.33 192.786 128.912 193.716 129.934L226.582 166.016C227.459 166.979 226.776 168.526 225.473 168.526H196.126C195.695 168.526 195.284 168.341 195 168.018L172.907 142.926C171.994 141.889 170.413 141.789 169.377 142.703L161.618 149.548C161.08 150.022 160.771 150.705 160.771 151.422V168C160.771 168.828 160.099 169.5 159.271 169.5H133.263C133.002 169.5 132.79 169.288 132.79 169.026V97C132.79 96.1716 133.461 95.5 134.29 95.5Z" fill="url(#paint4_linear_1_3)" stroke="url(#paint5_linear_1_3)"/>
</g>
</g>
<defs>
<linearGradient id="paint0_linear_1_3" x1="133" y1="0" x2="133" y2="266" gradientUnits="userSpaceOnUse">
<stop stop-color="#323232"/>
<stop offset="1" stop-color="#121212"/>
</linearGradient>
<linearGradient id="paint1_linear_1_3" x1="133" y1="0" x2="133" y2="266" gradientUnits="userSpaceOnUse">
<stop stop-color="white"/>
<stop offset="1"/>
</linearGradient>
<linearGradient id="paint2_linear_1_3" x1="84.6765" y1="95" x2="84.6765" y2="170" gradientUnits="userSpaceOnUse">
<stop stop-color="white"/>
<stop offset="0.490385" stop-color="#DFDFDF"/>
<stop offset="1" stop-color="#5D5D5D"/>
</linearGradient>
<linearGradient id="paint3_linear_1_3" x1="84.6765" y1="95" x2="84.6765" y2="170" gradientUnits="userSpaceOnUse">
<stop stop-color="white"/>
<stop offset="0.490385" stop-color="#FBFBFB"/>
<stop offset="1" stop-color="#696969"/>
</linearGradient>
<linearGradient id="paint4_linear_1_3" x1="181.145" y1="95" x2="181.145" y2="170" gradientUnits="userSpaceOnUse">
<stop stop-color="white"/>
<stop offset="0.456731" stop-color="#DBDBDB"/>
<stop offset="1" stop-color="#5D5D5D"/>
</linearGradient>
<linearGradient id="paint5_linear_1_3" x1="181.145" y1="95" x2="181.145" y2="170" gradientUnits="userSpaceOnUse">
<stop stop-color="white"/>
<stop offset="0.466346" stop-color="#E5E5E5"/>
<stop offset="1" stop-color="#636363"/>
</linearGradient>
<clipPath id="clip0_1_3">
<rect width="266" height="266" fill="white"/>
</clipPath>
<clipPath id="clip1_1_3">
<rect width="183" height="75" fill="white" transform="translate(47 95)"/>
</clipPath>
</defs>
</svg>
