<svg width="256" height="256" viewBox="0 0 256 256" fill="none" xmlns="http://www.w3.org/2000/svg">
<path d="M196 0H60C26.8629 0 0 26.8629 0 60V196C0 229.137 26.8629 256 60 256H196C229.137 256 256 229.137 256 196V60C256 26.8629 229.137 0 196 0Z" fill="#FFD000"/>
<path d="M108.932 53.3703C93.5964 56.089 90.8143 61.7644 90.8143 72.2656V86.0972H127.084V90.7191H77.2089C66.6572 90.7191 57.4286 97.0742 54.5447 109.139C51.2197 122.97 51.0839 131.602 54.5447 146.046C57.1232 156.785 63.2643 164.465 73.8161 164.465H86.2679V147.881C86.2679 135.884 96.6161 125.315 108.932 125.315H145.168C155.245 125.315 163.286 116.989 163.286 106.862V72.2316C163.286 62.3761 155.007 55.0015 145.168 53.3363C133.021 51.3312 119.823 51.4332 108.932 53.3703ZM106.659 63.0218C110.391 63.0218 113.479 66.1484 113.479 69.9546C113.479 73.7609 110.425 76.8535 106.659 76.8535C102.893 76.8535 99.8393 73.7609 99.8393 69.9546C99.8732 66.1144 102.893 63.0218 106.659 63.0218ZM169.495 90.6851V106.828C169.495 119.334 158.909 129.869 146.83 129.869H110.595C100.688 129.869 92.4768 138.365 92.4768 148.323V182.919C92.4768 192.774 101.027 198.551 110.595 201.372C122.063 204.737 133.089 205.348 146.83 201.372C155.957 198.721 164.948 193.386 164.948 182.919V169.087H128.746V164.465H183.1C193.652 164.465 197.554 157.091 201.218 146.046C205.018 134.661 204.848 123.718 201.218 109.139C198.605 98.6374 193.652 90.7191 183.1 90.7191H169.495V90.6851ZM149.104 178.297C152.87 178.297 155.923 181.389 155.923 185.196C155.923 189.036 152.87 192.128 149.104 192.128C145.371 192.128 142.284 189.002 142.284 185.196C142.318 181.355 145.371 178.297 149.104 178.297Z" fill="white"/>
</svg>
