<?xml version="1.0" encoding="UTF-8"?>
<svg id="Layer_1" xmlns="http://www.w3.org/2000/svg" version="1.1" viewBox="0 0 256 256">
  <!-- Generator: Adobe Illustrator 30.2.1, SVG Export Plug-In . SVG Version: 2.1.1 Build 1)  -->
  <defs>
    <style>
      .st0 {
        fill: #fff;
        fill-rule: evenodd;
      }

      .st1 {
        fill: #38bdf8;
      }
    </style>
  </defs>
  <path class="st1" d="M196,0H60C26.9,0,0,26.9,0,60v136c0,33.1,26.9,60,60,60h136c33.1,0,60-26.9,60-60V60c0-33.1-26.9-60-60-60Z"/>
  <path class="st0" d="M128,76c-23.3,0-37.8,11.5-43.6,34.6,8.7-11.5,18.9-15.9,30.5-13,6.6,1.7,11.4,6.4,16.6,11.8,8.6,8.6,18.5,18.6,40.1,18.6s37.8-11.5,43.6-34.6c-8.7,11.5-18.9,15.9-30.5,13-6.6-1.7-11.4-6.4-16.6-11.8-8.6-8.6-18.4-18.6-40.1-18.6h0ZM84.4,128c-23.3,0-37.8,11.5-43.6,34.6,8.7-11.6,18.9-15.9,30.5-13,6.6,1.7,11.4,6.4,16.6,11.8,8.6,8.6,18.5,18.6,40.1,18.6s37.8-11.5,43.6-34.6c-8.7,11.5-18.9,15.9-30.5,13-6.6-1.7-11.4-6.4-16.6-11.8-8.6-8.6-18.5-18.6-40.1-18.6Z"/>
</svg>