<?xml version="1.0" encoding="UTF-8"?>
<svg id="Layer_1" xmlns="http://www.w3.org/2000/svg" version="1.1" viewBox="0 0 256 256">
  <!-- Generator: Adobe Illustrator 30.2.1, SVG Export Plug-In . SVG Version: 2.1.1 Build 1)  -->
  <defs>
    <style>
      .st0 {
        fill: #fff;
        fill-rule: evenodd;
      }

      .st1 {
        fill: #3178c6;
      }
    </style>
  </defs>
  <path class="st1" d="M196,0H60C26.9,0,0,26.9,0,60v136c0,33.1,26.9,60,60,60h136c33.1,0,60-26.9,60-60V60c0-33.1-26.9-60-60-60Z"/>
  <path class="st0" d="M139.3,177.8v22.3c3.6,1.9,7.9,3.2,12.8,4.2,4.9.9,10.1,1.4,15.6,1.4s10.4-.5,15.1-1.5c4.8-1,9-2.7,12.6-5,3.6-2.3,6.5-5.4,8.6-9.2,2.1-3.8,3.2-8.4,3.2-14s-.6-7.6-1.8-10.6c-1.2-3-2.9-5.7-5.2-8.1-2.3-2.4-5-4.5-8.1-6.4-3.2-1.9-6.7-3.7-10.7-5.3-2.9-1.2-5.5-2.4-7.8-3.5-2.3-1.1-4.3-2.3-5.9-3.5-1.6-1.2-2.9-2.4-3.7-3.8-.9-1.3-1.3-2.8-1.3-4.5s.4-2.9,1.2-4.1,1.9-2.3,3.3-3.2c1.4-.9,3.2-1.6,5.3-2.1,2.1-.5,4.4-.7,6.9-.7s3.8.1,5.9.4c2.1.3,4.1.7,6.2,1.3,2.1.6,4.1,1.3,6.1,2.2,2,.9,3.8,1.9,5.4,3.1v-20.8c-3.4-1.3-7.1-2.3-11.1-2.9s-8.6-.9-13.8-.9-10.3.6-15,1.7c-4.7,1.1-8.9,2.9-12.4,5.3-3.6,2.4-6.4,5.5-8.5,9.2-2.1,3.7-3.1,8.2-3.1,13.4s1.9,12.3,5.7,17c3.8,4.7,9.6,8.6,17.4,11.9,3.1,1.3,5.9,2.5,8.5,3.7,2.6,1.2,4.9,2.5,6.8,3.8s3.4,2.7,4.5,4.2c1.1,1.5,1.7,3.3,1.7,5.2s-.3,2.8-1,4-1.7,2.3-3.2,3.2c-1.4.9-3.2,1.6-5.3,2.1-2.1.5-4.6.8-7.4.8-4.8,0-9.6-.8-14.3-2.5-4.7-1.7-9.1-4.2-13.1-7.6ZM101.9,122.5h29v-18.3H50v18.3h28.9v81.6h23v-81.6Z"/>
</svg>